<svg width="57" height="62" viewBox="0 0 57 62" fill="none" xmlns="http://www.w3.org/2000/svg">
<path d="M28.3333 37.282C25.7373 37.282 23.2953 38.294 21.4593 40.13C19.6253 41.964 18.6133 44.406 18.6133 47.002C18.6133 49.598 19.6253 52.04 21.4613 53.876C23.2953 55.712 25.7373 56.724 28.3353 56.724C30.9313 56.724 33.3733 55.712 35.2093 53.876C37.0453 52.04 38.0533 49.598 38.0533 47.002C38.0533 44.406 37.0413 41.964 35.2053 40.128C33.3693 38.292 30.9293 37.282 28.3333 37.282ZM22.4773 41.148C24.0413 39.584 26.1213 38.722 28.3333 38.722C30.3113 38.722 32.1853 39.412 33.6773 40.678L28.2193 46.1L21.5813 42.208C21.8473 41.832 22.1473 41.478 22.4773 41.148ZM22.4773 52.856C20.9153 51.294 20.0533 49.212 20.0533 47.002C20.0533 45.752 20.3293 44.544 20.8493 43.448L27.4993 47.348L25.5633 54.808C24.4153 54.402 23.3633 53.742 22.4773 52.856ZM34.1873 52.856C32.2973 54.75 29.5513 55.61 26.9573 55.168L28.9813 47.374L34.6933 41.7C35.9373 43.184 36.6133 45.042 36.6133 47.002C36.6133 49.212 35.7513 51.294 34.1873 52.856ZM56.0533 47.002C56.0533 44.094 53.8653 41.714 51.0533 41.354V33.002C51.0533 32.604 50.7313 32.282 50.3333 32.282H46.6993C43.8333 28.452 39.7193 25.526 35.1773 24.05C38.8873 21.708 41.2053 17.608 41.2053 13.162C41.2053 6.06 35.4253 0.281998 28.3253 0.281998C21.2233 0.281998 15.4453 6.06 15.4453 13.162C15.4453 17.608 17.7613 21.71 21.4713 24.052C16.9413 25.524 12.8333 28.452 9.97128 32.282H6.33328C5.93528 32.282 5.61328 32.604 5.61328 33.002V41.354C2.80128 41.712 0.613281 44.094 0.613281 47.002C0.613281 49.91 2.80128 52.292 5.61328 52.65V61.002C5.61328 61.4 5.93528 61.722 6.33328 61.722H50.3333C50.7313 61.722 51.0533 61.4 51.0533 61.002V52.65C53.8653 52.29 56.0533 49.91 56.0533 47.002ZM23.5493 24.962C23.8493 24.892 24.0713 24.636 24.0993 24.33C24.1293 24.024 23.9593 23.732 23.6773 23.606C19.5513 21.758 16.8833 17.658 16.8833 13.164C16.8833 6.856 22.0153 1.724 28.3233 1.724C34.6313 1.724 39.7633 6.856 39.7633 13.164C39.7633 17.658 37.0973 21.758 32.9693 23.606C32.6873 23.732 32.5173 24.024 32.5473 24.33C32.5773 24.638 32.7973 24.892 33.0973 24.962C37.6433 26.038 41.8593 28.674 44.8633 32.282H11.8013C14.8053 28.672 19.0133 26.036 23.5493 24.962ZM2.05328 47.002C2.05328 44.642 3.97328 42.722 6.33328 42.722C8.69328 42.722 10.6133 44.642 10.6133 47.002C10.6133 49.362 8.69328 51.282 6.33328 51.282C3.97328 51.282 2.05328 49.362 2.05328 47.002ZM7.05328 60.282V52.65C9.86528 52.292 12.0533 49.91 12.0533 47.002C12.0533 44.094 9.86528 41.712 7.05328 41.354V33.722H49.6133V41.354C46.8013 41.712 44.6133 44.094 44.6133 47.002C44.6133 49.91 46.8013 52.29 49.6133 52.65V60.282H7.05328ZM50.3333 51.282C47.9733 51.282 46.0533 49.362 46.0533 47.002C46.0533 44.642 47.9733 42.722 50.3333 42.722C52.6933 42.722 54.6133 44.642 54.6133 47.002C54.6133 49.362 52.6933 51.282 50.3333 51.282Z" fill="#006480"/>
</svg>
