<svg width="42" height="62" viewBox="0 0 42 62" fill="none" xmlns="http://www.w3.org/2000/svg">
<path d="M41 61.722H1.00003C0.60203 61.722 0.280029 61.4 0.280029 61.002V11.002C0.280029 10.604 0.60203 10.282 1.00003 10.282H16.28V1.002C16.28 0.603998 16.602 0.281998 17 0.281998H25C25.398 0.281998 25.72 0.603998 25.72 1.002V10.282H41C41.398 10.282 41.72 10.604 41.72 11.002V61.002C41.72 61.4 41.398 61.722 41 61.722ZM1.72003 60.282H40.28V11.722H25.72V17.002C25.72 17.4 25.398 17.722 25 17.722H17C16.602 17.722 16.28 17.4 16.28 17.002V11.722H1.72003V60.282ZM17.72 16.282H24.28V1.722H17.72V16.282V16.282ZM23 55.722H9.00003V54.282H23V55.722ZM33 51.722H9.00003V50.282H33V51.722ZM33.72 47.002H32.28C32.28 42.054 28.598 37.59 23.526 36.388C23.226 36.316 23.004 36.062 22.976 35.754C22.948 35.448 23.118 35.154 23.4 35.03C25.534 34.08 26.912 31.962 26.912 29.632C26.912 26.374 24.262 23.722 21.002 23.722C17.744 23.722 15.092 26.374 15.092 29.632C15.092 31.964 16.47 34.082 18.604 35.03C18.886 35.154 19.056 35.448 19.028 35.754C19 36.062 18.778 36.316 18.478 36.388C13.402 37.59 9.72003 42.054 9.72003 47.002H8.28003C8.28003 41.932 11.672 37.314 16.546 35.474C14.748 34.102 13.65 31.952 13.65 29.632C13.65 25.58 16.946 22.282 21 22.282C25.054 22.282 28.352 25.578 28.352 29.632C28.352 31.952 27.252 34.104 25.454 35.474C30.328 37.314 33.72 41.932 33.72 47.002Z" fill="#006480"/>
</svg>
