<svg width="63" height="62" viewBox="0 0 63 62" fill="none" xmlns="http://www.w3.org/2000/svg">
<path d="M42.3867 61.002H40.9467L40.9447 57.858C40.9447 53.954 38.4367 50.45 34.7027 49.138C34.4307 49.042 34.2447 48.796 34.2227 48.51C34.2027 48.224 34.3527 47.954 34.6087 47.82C36.7547 46.702 38.0867 44.528 38.0867 42.146C38.0867 38.604 35.2067 35.724 31.6647 35.724C28.1227 35.724 25.2407 38.604 25.2407 42.146C25.2407 44.528 26.5747 46.704 28.7207 47.822C28.9747 47.954 29.1267 48.226 29.1067 48.512C29.0867 48.8 28.8987 49.046 28.6287 49.14C24.8967 50.452 22.3887 53.956 22.3887 57.858L22.3847 61.002H20.9447V57.858C20.9447 53.954 18.4347 50.45 14.7007 49.138C14.4307 49.042 14.2427 48.796 14.2227 48.51C14.2027 48.224 14.3527 47.954 14.6067 47.82C16.7527 46.702 18.0847 44.528 18.0847 42.146C18.0847 38.604 15.2027 35.724 11.6627 35.724C8.12066 35.724 5.23866 38.604 5.23866 42.146C5.23866 44.528 6.57266 46.704 8.71866 47.822C8.97266 47.954 9.12466 48.226 9.10466 48.512C9.08466 48.8 8.89666 49.046 8.62666 49.14C4.89466 50.452 2.38666 53.956 2.38666 57.858V61.002H0.946655V57.858C0.946655 53.814 3.27066 50.142 6.85466 48.332C4.94266 46.858 3.80066 44.592 3.80066 42.144C3.80066 37.808 7.32866 34.28 11.6647 34.28C15.9987 34.28 19.5267 37.808 19.5267 42.144C19.5267 44.59 18.3847 46.852 16.4747 48.328C18.8787 49.542 20.7187 51.594 21.6667 54.036C22.6167 51.596 24.4527 49.546 26.8567 48.332C24.9447 46.858 23.8027 44.592 23.8027 42.144C23.8027 37.808 27.3307 34.28 31.6667 34.28C36.0027 34.28 39.5307 37.808 39.5307 42.144C39.5307 44.59 38.3887 46.852 36.4767 48.328C38.8827 49.542 40.7207 51.596 41.6707 54.036C42.6207 51.594 44.4587 49.544 46.8607 48.33C44.9487 46.856 43.8067 44.59 43.8067 42.142C43.8067 37.806 47.3347 34.278 51.6707 34.278C56.0067 34.278 59.5347 37.806 59.5347 42.142C59.5347 44.588 58.3927 46.85 56.4827 48.326C60.0687 50.136 62.3947 53.81 62.3947 57.856V61.002H60.9467V57.858C60.9467 53.954 58.4387 50.45 54.7047 49.138C54.4327 49.042 54.2467 48.796 54.2247 48.51C54.2047 48.224 54.3547 47.954 54.6107 47.82C56.7547 46.702 58.0867 44.528 58.0867 42.146C58.0867 38.604 55.2067 35.724 51.6647 35.724C48.1227 35.724 45.2427 38.604 45.2427 42.146C45.2427 44.53 46.5747 46.704 48.7207 47.822C48.9767 47.954 49.1267 48.226 49.1067 48.512C49.0847 48.8 48.8987 49.046 48.6267 49.14C44.8947 50.452 42.3887 53.956 42.3887 57.858L42.3867 61.002ZM61.6667 29.722H31.6667V28.282H60.9467V1.722H28.3867V13.738H33.7447C35.2447 13.738 36.4647 14.958 36.4647 16.458C36.4647 17.958 35.2447 19.178 33.7447 19.178H20.3867V29.002H18.9467V18.458C18.9467 18.06 19.2687 17.738 19.6667 17.738H33.7447C34.4507 17.738 35.0247 17.164 35.0247 16.458C35.0247 15.752 34.4507 15.178 33.7447 15.178H14.8987C14.5667 15.178 14.2787 14.952 14.1987 14.63C14.1207 14.306 14.2727 13.972 14.5667 13.818C16.7047 12.702 18.0347 10.528 18.0347 8.146C18.0347 4.604 15.1767 1.722 11.6667 1.722C8.11866 1.722 5.23066 4.604 5.23066 8.146C5.23066 10.53 6.56066 12.704 8.70066 13.82C8.95466 13.952 9.10666 14.224 9.08466 14.51C9.06466 14.796 8.87666 15.044 8.60666 15.138C4.88666 16.45 2.38666 19.954 2.38666 23.858V29.002H0.946655V23.858C0.946655 19.814 3.26466 16.142 6.83666 14.332C4.93066 12.858 3.79066 10.592 3.79066 8.146C3.79066 3.81 7.32466 0.281998 11.6667 0.281998C15.9707 0.281998 19.4727 3.81 19.4727 8.146C19.4727 10.284 18.6027 12.284 17.1107 13.738H26.9467V1.002C26.9467 0.603998 27.2687 0.281998 27.6667 0.281998H61.6667C62.0647 0.281998 62.3867 0.603998 62.3867 1.002V29.002C62.3867 29.4 62.0647 29.722 61.6667 29.722ZM51.6667 21.722C49.8727 21.722 48.1847 21.022 46.9147 19.754C45.6447 18.484 44.9467 16.796 44.9467 15.002C44.9467 13.208 45.6467 11.52 46.9147 10.252C49.4547 7.712 53.8787 7.712 56.4187 10.252C57.6887 11.52 58.3867 13.208 58.3867 15.002C58.3867 16.796 57.6867 18.484 56.4187 19.752C55.1487 21.022 53.4607 21.722 51.6667 21.722ZM51.0567 20.248C52.6387 20.432 54.2587 19.878 55.3987 18.736C56.3967 17.738 56.9467 16.412 56.9467 15.002C56.9467 13.842 56.5747 12.74 55.8907 11.83L52.3167 15.374L51.0567 20.248ZM46.7907 12.97C46.5267 13.606 46.3867 14.294 46.3867 15.002C46.3867 16.412 46.9347 17.738 47.9327 18.736C48.4347 19.238 49.0227 19.628 49.6607 19.89L50.8327 15.348L46.7907 12.97ZM47.5227 11.73L51.5547 14.1L54.8767 10.808C52.8587 9.258 49.7607 9.44 47.9347 11.268C47.7867 11.416 47.6487 11.57 47.5227 11.73ZM39.6667 9.722H31.6667V8.282H39.6667V9.722ZM41.6667 5.722H31.6667V4.282H41.6667V5.722Z" fill="#006480"/>
</svg>
